<mxfile host="app.diagrams.net" modified="2024-02-10T22:07:43.761Z" agent="Mozilla/5.0 (Windows NT 10.0; Win64; x64) AppleWebKit/537.36 (KHTML, like Gecko) Chrome/120.0.0.0 Safari/537.36 OPR/106.0.0.0" etag="a__saJ-qjMHDSbYNEpmw" version="23.1.2" type="github">
  <diagram name="Page-1" id="qRHQvw9GKaDF2aj6fuwt">
    <mxGraphModel dx="767" dy="431" grid="1" gridSize="10" guides="1" tooltips="1" connect="1" arrows="1" fold="1" page="1" pageScale="1" pageWidth="827" pageHeight="1169" math="0" shadow="0">
      <root>
        <mxCell id="0" />
        <mxCell id="1" parent="0" />
        <mxCell id="sNWMe7kzuakuON6OVZCz-1" value="" style="rounded=0;whiteSpace=wrap;html=1;" vertex="1" parent="1">
          <mxGeometry width="90" height="220" as="geometry" />
        </mxCell>
        <mxCell id="sNWMe7kzuakuON6OVZCz-2" value="" style="rounded=0;whiteSpace=wrap;html=1;" vertex="1" parent="1">
          <mxGeometry x="90" width="200" height="70" as="geometry" />
        </mxCell>
        <mxCell id="sNWMe7kzuakuON6OVZCz-5" value="" style="rounded=1;whiteSpace=wrap;html=1;" vertex="1" parent="1">
          <mxGeometry x="20" y="190" width="50" height="30" as="geometry" />
        </mxCell>
        <mxCell id="sNWMe7kzuakuON6OVZCz-6" value="" style="rounded=1;whiteSpace=wrap;html=1;" vertex="1" parent="1">
          <mxGeometry x="5" width="80" height="190" as="geometry" />
        </mxCell>
        <mxCell id="sNWMe7kzuakuON6OVZCz-7" value="" style="rounded=0;whiteSpace=wrap;html=1;" vertex="1" parent="1">
          <mxGeometry x="260" y="10" width="30" height="50" as="geometry" />
        </mxCell>
        <mxCell id="sNWMe7kzuakuON6OVZCz-8" value="" style="rounded=0;whiteSpace=wrap;html=1;" vertex="1" parent="1">
          <mxGeometry x="170" y="10" width="70" height="10" as="geometry" />
        </mxCell>
        <mxCell id="sNWMe7kzuakuON6OVZCz-9" value="" style="rounded=0;whiteSpace=wrap;html=1;rotation=-15;" vertex="1" parent="1">
          <mxGeometry x="100" y="20" width="70" height="10" as="geometry" />
        </mxCell>
        <mxCell id="sNWMe7kzuakuON6OVZCz-10" value="" style="rounded=0;whiteSpace=wrap;html=1;" vertex="1" parent="1">
          <mxGeometry x="150" y="40" width="50" height="20" as="geometry" />
        </mxCell>
        <mxCell id="sNWMe7kzuakuON6OVZCz-11" value="" style="rounded=1;whiteSpace=wrap;html=1;" vertex="1" parent="1">
          <mxGeometry x="220" y="40" width="10" height="20" as="geometry" />
        </mxCell>
        <mxCell id="sNWMe7kzuakuON6OVZCz-14" value="" style="endArrow=none;html=1;rounded=0;" edge="1" parent="1">
          <mxGeometry width="50" height="50" relative="1" as="geometry">
            <mxPoint x="300" y="160" as="sourcePoint" />
            <mxPoint x="300" as="targetPoint" />
          </mxGeometry>
        </mxCell>
        <mxCell id="sNWMe7kzuakuON6OVZCz-15" value="" style="endArrow=none;html=1;rounded=0;" edge="1" parent="1">
          <mxGeometry width="50" height="50" relative="1" as="geometry">
            <mxPoint y="230" as="sourcePoint" />
            <mxPoint x="300" y="230" as="targetPoint" />
          </mxGeometry>
        </mxCell>
        <mxCell id="sNWMe7kzuakuON6OVZCz-18" value="" style="endArrow=none;dashed=1;html=1;rounded=0;" edge="1" parent="1">
          <mxGeometry width="50" height="50" relative="1" as="geometry">
            <mxPoint x="300" y="230" as="sourcePoint" />
            <mxPoint x="300" y="160" as="targetPoint" />
          </mxGeometry>
        </mxCell>
        <mxCell id="sNWMe7kzuakuON6OVZCz-19" value="" style="shape=or;whiteSpace=wrap;html=1;rotation=90;" vertex="1" parent="1">
          <mxGeometry x="170" y="60" width="40" height="60" as="geometry" />
        </mxCell>
        <mxCell id="sNWMe7kzuakuON6OVZCz-20" value="" style="rounded=0;whiteSpace=wrap;html=1;" vertex="1" parent="1">
          <mxGeometry x="320" y="110" width="10" height="120" as="geometry" />
        </mxCell>
        <mxCell id="sNWMe7kzuakuON6OVZCz-21" value="" style="rounded=0;whiteSpace=wrap;html=1;" vertex="1" parent="1">
          <mxGeometry x="330" y="110" width="210" height="10" as="geometry" />
        </mxCell>
        <mxCell id="sNWMe7kzuakuON6OVZCz-22" value="" style="rounded=0;whiteSpace=wrap;html=1;" vertex="1" parent="1">
          <mxGeometry x="540" y="110" width="10" height="120" as="geometry" />
        </mxCell>
        <mxCell id="sNWMe7kzuakuON6OVZCz-23" value="" style="rounded=0;whiteSpace=wrap;html=1;" vertex="1" parent="1">
          <mxGeometry x="340" y="140" width="190" height="80" as="geometry" />
        </mxCell>
        <mxCell id="sNWMe7kzuakuON6OVZCz-24" value="" style="rounded=0;whiteSpace=wrap;html=1;" vertex="1" parent="1">
          <mxGeometry x="350" y="140" width="10" height="80" as="geometry" />
        </mxCell>
        <mxCell id="sNWMe7kzuakuON6OVZCz-25" value="" style="rounded=0;whiteSpace=wrap;html=1;" vertex="1" parent="1">
          <mxGeometry x="370" y="140" width="10" height="80" as="geometry" />
        </mxCell>
        <mxCell id="sNWMe7kzuakuON6OVZCz-26" value="" style="rounded=0;whiteSpace=wrap;html=1;" vertex="1" parent="1">
          <mxGeometry x="390" y="140" width="10" height="80" as="geometry" />
        </mxCell>
        <mxCell id="sNWMe7kzuakuON6OVZCz-27" value="" style="rounded=0;whiteSpace=wrap;html=1;" vertex="1" parent="1">
          <mxGeometry x="409" y="140" width="10" height="80" as="geometry" />
        </mxCell>
        <mxCell id="sNWMe7kzuakuON6OVZCz-28" value="" style="rounded=0;whiteSpace=wrap;html=1;" vertex="1" parent="1">
          <mxGeometry x="430" y="140" width="10" height="80" as="geometry" />
        </mxCell>
        <mxCell id="sNWMe7kzuakuON6OVZCz-29" value="" style="rounded=0;whiteSpace=wrap;html=1;" vertex="1" parent="1">
          <mxGeometry x="450" y="140" width="10" height="80" as="geometry" />
        </mxCell>
        <mxCell id="sNWMe7kzuakuON6OVZCz-30" value="" style="rounded=0;whiteSpace=wrap;html=1;" vertex="1" parent="1">
          <mxGeometry x="470" y="140" width="10" height="80" as="geometry" />
        </mxCell>
        <mxCell id="sNWMe7kzuakuON6OVZCz-31" value="" style="rounded=0;whiteSpace=wrap;html=1;" vertex="1" parent="1">
          <mxGeometry x="490" y="140" width="10" height="80" as="geometry" />
        </mxCell>
        <mxCell id="sNWMe7kzuakuON6OVZCz-32" value="" style="rounded=0;whiteSpace=wrap;html=1;" vertex="1" parent="1">
          <mxGeometry x="510" y="140" width="10" height="80" as="geometry" />
        </mxCell>
        <mxCell id="sNWMe7kzuakuON6OVZCz-33" value="" style="rounded=0;whiteSpace=wrap;html=1;" vertex="1" parent="1">
          <mxGeometry x="320" y="260" width="10" height="120" as="geometry" />
        </mxCell>
        <mxCell id="sNWMe7kzuakuON6OVZCz-34" value="" style="rounded=0;whiteSpace=wrap;html=1;" vertex="1" parent="1">
          <mxGeometry x="330" y="260" width="210" height="10" as="geometry" />
        </mxCell>
        <mxCell id="sNWMe7kzuakuON6OVZCz-36" value="" style="rounded=0;whiteSpace=wrap;html=1;" vertex="1" parent="1">
          <mxGeometry x="540" y="260" width="10" height="120" as="geometry" />
        </mxCell>
        <mxCell id="sNWMe7kzuakuON6OVZCz-38" value="" style="shape=umlActor;verticalLabelPosition=bottom;verticalAlign=top;html=1;outlineConnect=0;rotation=-180;" vertex="1" parent="1">
          <mxGeometry x="10" y="20" width="70" height="200" as="geometry" />
        </mxCell>
        <mxCell id="sNWMe7kzuakuON6OVZCz-40" value="" style="endArrow=none;html=1;rounded=0;entryX=-0.144;entryY=0.168;entryDx=0;entryDy=0;entryPerimeter=0;exitX=1.189;exitY=0.186;exitDx=0;exitDy=0;exitPerimeter=0;" edge="1" parent="1" source="sNWMe7kzuakuON6OVZCz-33" target="sNWMe7kzuakuON6OVZCz-36">
          <mxGeometry width="50" height="50" relative="1" as="geometry">
            <mxPoint x="350" y="320" as="sourcePoint" />
            <mxPoint x="400" y="270" as="targetPoint" />
          </mxGeometry>
        </mxCell>
        <mxCell id="sNWMe7kzuakuON6OVZCz-45" value="&lt;h1&gt;&lt;font style=&quot;font-size: 44px;&quot;&gt;tÃ¸j&lt;/font&gt;&lt;/h1&gt;" style="html=1;whiteSpace=wrap;" vertex="1" parent="1">
          <mxGeometry x="340" y="295" width="190" height="85" as="geometry" />
        </mxCell>
      </root>
    </mxGraphModel>
  </diagram>
</mxfile>
